<mxfile host="app.diagrams.net" modified="2024-10-01T17:51:35.326Z" agent="Mozilla/5.0 (Windows NT 10.0; Win64; x64) AppleWebKit/537.36 (KHTML, like Gecko) Chrome/129.0.0.0 Safari/537.36" version="24.2.5" etag="25FfmIFTpeqjd4Mu1rW9" type="github">
  <diagram name="Halaman-1" id="I0bSx2moTneutYddOpNd">
    <mxGraphModel>
      <root>
        <mxCell id="0" />
        <mxCell id="1" parent="0" />
      </root>
    </mxGraphModel>
  </diagram>
</mxfile>
